<svg xmlns="http://www.w3.org/2000/svg" width="150" height="32" viewBox="0 0 150 32" fill="none">
    <path d="M2 22L12 27L8.5 22.5L12.5 11.5H18.5L22.5 23L18.5 27L14 31.5L29.5 24L21 0L18.5 6.5H13L10 0L2 22Z" fill="#F21818"/>
    <path d="M76.9 25.5H81.5L78 22.1H76.9C76.5372 22.1 76.2402 21.9771 75.9816 21.7184C75.7229 21.4598 75.6 21.1628 75.6 20.8V6.5H72.2V20.8C72.2 21.6658 72.4042 22.4647 72.8185 23.1852L72.8223 23.1917L72.8262 23.198C73.253 23.8916 73.8233 24.4524 74.5307 24.8768L74.5388 24.8815C75.2577 25.2948 76.0482 25.5 76.9 25.5Z" fill="#F21818"/>
    <path d="M111.003 25.5H116.016L106.713 17.9188L114.785 11.3H109.942L101.887 18.027V6.50003H98.4871V25.5H101.887V21.8768L104.174 20.0041L111.003 25.5Z" fill="#F21818"/>
    <path d="M139.407 25.5H136.007V14.7H132.407V11.3H136.007V6.50003H139.407V11.3H150V14.7H139.407V25.5Z" fill="#F21818"/>
    <path fill-rule="evenodd" clip-rule="evenodd" d="M70.3552 18.3652C69.9444 19.0781 69.3802 19.6502 68.6692 20.0767L68.666 20.0787C67.9588 20.4958 67.1657 20.7 66.3 20.7H58.001C58.2432 21.0092 58.5342 21.28 58.8757 21.5135C59.4624 21.904 60.1165 22.1 60.852 22.1H70V25.5H60.852C59.877 25.5 58.9548 25.32 58.0904 24.957L58.0791 24.9523C57.2397 24.5754 56.4934 24.0605 55.8424 23.4096L55.8377 23.4048C55.2027 22.7526 54.7045 22.0051 54.3444 21.165L54.343 21.1616C53.9799 20.2972 53.8 19.375 53.8 18.4C53.8 17.4257 53.9797 16.5108 54.3437 15.6608C54.7033 14.8051 55.2015 14.0487 55.8378 13.3952L55.8424 13.3904C56.4945 12.7384 57.2428 12.2306 58.0849 11.8694C58.9504 11.4889 59.8746 11.3 60.852 11.3H66.3C67.1672 11.3 67.9609 11.513 68.6677 11.9463C69.3791 12.3568 69.9433 12.9209 70.3538 13.6324C70.787 14.3391 71 15.1328 71 16C71 16.8543 70.7856 17.6462 70.3552 18.3652ZM59.1483 15.1185C59.6632 14.8407 60.2281 14.7 60.852 14.7H66.3C66.6628 14.7 66.9598 14.8229 67.2184 15.0815C67.4771 15.3402 67.6 15.6371 67.6 16C67.6 16.3628 67.4771 16.6598 67.2184 16.9184C66.9598 17.1771 66.6628 17.3 66.3 17.3H57.3688C57.4815 16.9287 57.6507 16.5842 57.8765 16.2643C58.2171 15.7819 58.6398 15.4014 59.1483 15.1185Z" fill="#F21818"/>
    <path d="M49.336 25.5V18.3H36.5V14.9H49.336V7.7H52.736V25.5H49.336Z" fill="#F21818"/>
    <path d="M34 25.5H37.4V7.7H34V25.5Z" fill="#F21818"/>
    <path fill-rule="evenodd" clip-rule="evenodd" d="M96.0552 18.3652C95.6444 19.0781 95.0802 19.6502 94.3692 20.0767L94.366 20.0787C93.6588 20.4958 92.8657 20.7 92 20.7H83.701C83.9432 21.0092 84.2342 21.28 84.5757 21.5135C85.1624 21.904 85.8165 22.1 86.552 22.1H95.7V25.5H86.552C85.577 25.5 84.6548 25.32 83.7904 24.957L83.7791 24.9523C82.9397 24.5754 82.1934 24.0605 81.5424 23.4096L81.5377 23.4048C80.9027 22.7526 80.4045 22.0051 80.0444 21.165L80.043 21.1616C79.6799 20.2972 79.5 19.375 79.5 18.4C79.5 17.4257 79.6797 16.5108 80.0437 15.6608C80.4033 14.8051 80.9015 14.0487 81.5378 13.3952L81.5424 13.3904C82.1945 12.7384 82.9428 12.2306 83.7849 11.8694C84.6504 11.4889 85.5746 11.3 86.552 11.3H92C92.8672 11.3 93.6609 11.513 94.3677 11.9463C95.0791 12.3568 95.6433 12.9209 96.0538 13.6324C96.487 14.3391 96.7 15.1328 96.7 16C96.7 16.8543 96.4856 17.6462 96.0552 18.3652ZM84.8483 15.1185C85.3632 14.8407 85.9281 14.7 86.552 14.7H92C92.3629 14.7 92.6598 14.8229 92.9184 15.0815C93.1771 15.3402 93.3 15.6371 93.3 16C93.3 16.3628 93.1771 16.6598 92.9184 16.9184C92.6598 17.1771 92.3629 17.3 92 17.3H83.0688C83.1815 16.9287 83.3507 16.5842 83.5765 16.2643C83.9171 15.7819 84.3398 15.4014 84.8483 15.1185Z" fill="#F21818"/>
    <path fill-rule="evenodd" clip-rule="evenodd" d="M130.555 18.3652C130.144 19.0781 129.58 19.6502 128.869 20.0767L128.866 20.0787C128.159 20.4958 127.366 20.7 126.5 20.7H118.201C118.443 21.0092 118.734 21.28 119.076 21.5135C119.662 21.904 120.317 22.1 121.052 22.1H130.2V25.5H121.052C120.077 25.5 119.155 25.32 118.29 24.957L118.279 24.9523C117.44 24.5754 116.693 24.0605 116.042 23.4096L116.038 23.4048C115.403 22.7526 114.904 22.0051 114.544 21.165L114.543 21.1616C114.18 20.2972 114 19.375 114 18.4C114 17.4257 114.18 16.5108 114.544 15.6608C114.903 14.8051 115.401 14.0487 116.038 13.3952L116.042 13.3904C116.694 12.7384 117.443 12.2306 118.285 11.8694C119.15 11.4889 120.075 11.3 121.052 11.3H126.5C127.367 11.3 128.161 11.513 128.868 11.9463C129.579 12.3568 130.143 12.9209 130.554 13.6324C130.987 14.3391 131.2 15.1328 131.2 16C131.2 16.8543 130.986 17.6462 130.555 18.3652ZM119.348 15.1185C119.863 14.8407 120.428 14.7 121.052 14.7H126.5C126.863 14.7 127.16 14.8229 127.418 15.0815C127.677 15.3402 127.8 15.6371 127.8 16C127.8 16.3628 127.677 16.6598 127.418 16.9184C127.16 17.1771 126.863 17.3 126.5 17.3H117.569C117.682 16.9287 117.851 16.5842 118.076 16.2643C118.417 15.7819 118.84 15.4014 119.348 15.1185Z" fill="#F21818"/>
</svg>
