<svg width="268" height="115" viewBox="0 0 268 115" fill="none" xmlns="http://www.w3.org/2000/svg">
<g clip-path="url(#clip0_1038_13)">
<path d="M61 63.5L71 68.5L67.5 64L71.5 53H77.5L81.5 64.5L77.5 68.5L73 73L88.5 65.5L80 41.5L77.5 48H72L69 41.5L61 63.5Z" fill="#F21818"/>
<path d="M135.9 67H140.5L137 63.6H135.9C135.537 63.6 135.24 63.4771 134.982 63.2184C134.723 62.9598 134.6 62.6628 134.6 62.3V48H131.2V62.3C131.2 63.1658 131.404 63.9647 131.818 64.6852L131.822 64.6917L131.826 64.698C132.253 65.3916 132.823 65.9524 133.531 66.3768L133.539 66.3815C134.258 66.7948 135.048 67 135.9 67Z" fill="#F21818"/>
<path d="M170.003 67H175.016L165.713 59.4188L173.785 52.8H168.942L160.887 59.527V48H157.487V67H160.887V63.3768L163.174 61.5041L170.003 67Z" fill="#F21818"/>
<path d="M198.407 67H195.007V56.2H191.407V52.8H195.007V48H198.407V52.8H209V56.2H198.407V67Z" fill="#F21818"/>
<path fill-rule="evenodd" clip-rule="evenodd" d="M129.355 59.8652C128.944 60.5781 128.38 61.1502 127.669 61.5767L127.666 61.5787C126.959 61.9958 126.166 62.2 125.3 62.2H117.001C117.243 62.5092 117.534 62.78 117.876 63.0135C118.462 63.404 119.117 63.6 119.852 63.6H129V67H119.852C118.877 67 117.955 66.82 117.09 66.457L117.079 66.4523C116.24 66.0754 115.493 65.5605 114.842 64.9096L114.838 64.9048C114.203 64.2526 113.705 63.5051 113.344 62.665L113.343 62.6616C112.98 61.7972 112.8 60.875 112.8 59.9C112.8 58.9257 112.98 58.0108 113.344 57.1608C113.703 56.3051 114.202 55.5487 114.838 54.8952L114.842 54.8904C115.495 54.2384 116.243 53.7306 117.085 53.3694C117.95 52.9889 118.875 52.8 119.852 52.8H125.3C126.167 52.8 126.961 53.013 127.668 53.4463C128.379 53.8568 128.943 54.4209 129.354 55.1324C129.787 55.8391 130 56.6328 130 57.5C130 58.3543 129.786 59.1462 129.355 59.8652ZM118.148 56.6185C118.663 56.3407 119.228 56.2 119.852 56.2H125.3C125.663 56.2 125.96 56.3229 126.218 56.5815C126.477 56.8402 126.6 57.1371 126.6 57.5C126.6 57.8628 126.477 58.1598 126.218 58.4184C125.96 58.6771 125.663 58.8 125.3 58.8H116.369C116.482 58.4287 116.651 58.0842 116.877 57.7643C117.217 57.2819 117.64 56.9014 118.148 56.6185Z" fill="#F21818"/>
<path d="M108.336 67V59.8H95.5V56.4H108.336V49.2H111.736V67H108.336Z" fill="#F21818"/>
<path d="M93 67H96.4V49.2H93V67Z" fill="#F21818"/>
<path fill-rule="evenodd" clip-rule="evenodd" d="M155.055 59.8652C154.644 60.5781 154.08 61.1502 153.369 61.5767L153.366 61.5787C152.659 61.9958 151.866 62.2 151 62.2H142.701C142.943 62.5092 143.234 62.78 143.576 63.0135C144.162 63.404 144.817 63.6 145.552 63.6H154.7V67H145.552C144.577 67 143.655 66.82 142.79 66.457L142.779 66.4523C141.94 66.0754 141.193 65.5605 140.542 64.9096L140.538 64.9048C139.903 64.2526 139.405 63.5051 139.044 62.665L139.043 62.6616C138.68 61.7972 138.5 60.875 138.5 59.9C138.5 58.9257 138.68 58.0108 139.044 57.1608C139.403 56.3051 139.902 55.5487 140.538 54.8952L140.542 54.8904C141.194 54.2384 141.943 53.7306 142.785 53.3694C143.65 52.9889 144.575 52.8 145.552 52.8H151C151.867 52.8 152.661 53.013 153.368 53.4463C154.079 53.8568 154.643 54.4209 155.054 55.1324C155.487 55.8391 155.7 56.6328 155.7 57.5C155.7 58.3543 155.486 59.1462 155.055 59.8652ZM143.848 56.6185C144.363 56.3407 144.928 56.2 145.552 56.2H151C151.363 56.2 151.66 56.3229 151.918 56.5815C152.177 56.8402 152.3 57.1371 152.3 57.5C152.3 57.8628 152.177 58.1598 151.918 58.4184C151.66 58.6771 151.363 58.8 151 58.8H142.069C142.182 58.4287 142.351 58.0842 142.576 57.7643C142.917 57.2819 143.34 56.9014 143.848 56.6185Z" fill="#F21818"/>
<path fill-rule="evenodd" clip-rule="evenodd" d="M189.555 59.8652C189.144 60.5781 188.58 61.1502 187.869 61.5767L187.866 61.5787C187.159 61.9958 186.366 62.2 185.5 62.2H177.201C177.443 62.5092 177.734 62.78 178.076 63.0135C178.662 63.404 179.317 63.6 180.052 63.6H189.2V67H180.052C179.077 67 178.155 66.82 177.29 66.457L177.279 66.4523C176.44 66.0754 175.693 65.5605 175.042 64.9096L175.038 64.9048C174.403 64.2526 173.904 63.5051 173.544 62.665L173.543 62.6616C173.18 61.7972 173 60.875 173 59.9C173 58.9257 173.18 58.0108 173.544 57.1608C173.903 56.3051 174.401 55.5487 175.038 54.8952L175.042 54.8904C175.694 54.2384 176.443 53.7306 177.285 53.3694C178.15 52.9889 179.075 52.8 180.052 52.8H185.5C186.367 52.8 187.161 53.013 187.868 53.4463C188.579 53.8568 189.143 54.4209 189.554 55.1324C189.987 55.8391 190.2 56.6328 190.2 57.5C190.2 58.3543 189.986 59.1462 189.555 59.8652ZM178.348 56.6185C178.863 56.3407 179.428 56.2 180.052 56.2H185.5C185.863 56.2 186.16 56.3229 186.418 56.5815C186.677 56.8402 186.8 57.1371 186.8 57.5C186.8 57.8628 186.677 58.1598 186.418 58.4184C186.16 58.6771 185.863 58.8 185.5 58.8H176.569C176.682 58.4287 176.851 58.0842 177.076 57.7643C177.417 57.2819 177.84 56.9014 178.348 56.6185Z" fill="#F21818"/>
</g>
<path d="M13.254 27.144C11.994 27.144 10.872 26.91 9.888 26.442C8.916 25.962 8.154 25.242 7.602 24.282C7.05 23.322 6.774 22.122 6.774 20.682C6.774 19.638 6.942 18.714 7.278 17.91C7.614 17.106 8.082 16.434 8.682 15.894C9.294 15.342 10.002 14.928 10.806 14.652C11.61 14.364 12.474 14.22 13.398 14.22C14.046 14.22 14.682 14.286 15.306 14.418C15.93 14.55 16.524 14.718 17.088 14.922L17.322 15.03L16.764 17.478L16.296 17.406C15.804 17.334 15.336 17.268 14.892 17.208C14.46 17.148 14.016 17.118 13.56 17.118C12.828 17.118 12.198 17.244 11.67 17.496C11.142 17.748 10.734 18.132 10.446 18.648C10.158 19.164 10.014 19.836 10.014 20.664C10.014 21.516 10.146 22.206 10.41 22.734C10.686 23.25 11.076 23.634 11.58 23.886C12.096 24.126 12.72 24.246 13.452 24.246C13.86 24.246 14.298 24.216 14.766 24.156C15.234 24.096 15.732 24.018 16.26 23.922L17.052 23.76L17.574 26.208L17.178 26.37C16.566 26.622 15.918 26.814 15.234 26.946C14.562 27.078 13.902 27.144 13.254 27.144ZM19.2303 27V14.4H25.3683C26.3043 14.4 27.1083 14.562 27.7803 14.886C28.4643 15.21 28.9923 15.672 29.3643 16.272C29.7483 16.872 29.9403 17.586 29.9403 18.414C29.9403 19.17 29.7903 19.812 29.4903 20.34C29.2023 20.868 28.8003 21.294 28.2843 21.618C27.7803 21.93 27.1983 22.164 26.5383 22.32C25.8783 22.464 25.1823 22.536 24.4503 22.536H22.3983V27H19.2303ZM27.0963 27L24.3603 22.23L27.3483 21.654L30.6063 27H27.0963ZM22.3983 20.178H24.8283C25.4763 20.178 25.9623 20.046 26.2863 19.782C26.6223 19.506 26.7903 19.104 26.7903 18.576C26.7903 18.06 26.6223 17.682 26.2863 17.442C25.9623 17.202 25.4703 17.082 24.8103 17.082H22.3983V20.178ZM35.3615 27V22.986L30.2855 14.4H34.0295L36.9455 19.962H37.0175L39.9515 14.4H43.5515L38.5475 22.914V27H35.3615ZM45.2459 27V14.4H51.4199C52.3679 14.4 53.1779 14.58 53.8499 14.94C54.5219 15.3 55.0319 15.81 55.3799 16.47C55.7399 17.118 55.9199 17.892 55.9199 18.792C55.9199 19.704 55.7279 20.496 55.3439 21.168C54.9719 21.84 54.4439 22.356 53.7599 22.716C53.0879 23.076 52.2959 23.256 51.3839 23.256H48.4139V27H45.2459ZM48.4139 20.556H50.6999C51.3359 20.556 51.8219 20.424 52.1579 20.16C52.4939 19.884 52.6619 19.428 52.6619 18.792C52.6619 18.156 52.4939 17.712 52.1579 17.46C51.8219 17.196 51.3359 17.064 50.6999 17.064H48.4139V20.556ZM60.845 27V17.172H56.795V14.4H68.045V17.172H64.013V27H60.845ZM75.1654 27.18C73.8214 27.18 72.6574 26.91 71.6734 26.37C70.7014 25.818 69.9514 25.056 69.4234 24.084C68.8954 23.112 68.6314 21.978 68.6314 20.682C68.6314 19.386 68.9014 18.258 69.4414 17.298C69.9934 16.326 70.7614 15.57 71.7454 15.03C72.7294 14.49 73.8694 14.22 75.1654 14.22C76.5094 14.22 77.6674 14.496 78.6394 15.048C79.6234 15.588 80.3794 16.344 80.9074 17.316C81.4354 18.276 81.6994 19.404 81.6994 20.7C81.6994 21.996 81.4234 23.13 80.8714 24.102C80.3314 25.074 79.5694 25.83 78.5854 26.37C77.6014 26.91 76.4614 27.18 75.1654 27.18ZM75.1654 24.246C75.8374 24.246 76.4134 24.126 76.8934 23.886C77.3854 23.634 77.7694 23.244 78.0454 22.716C78.3214 22.188 78.4594 21.51 78.4594 20.682C78.4594 19.854 78.3274 19.182 78.0634 18.666C77.7994 18.15 77.4214 17.772 76.9294 17.532C76.4374 17.28 75.8494 17.154 75.1654 17.154C74.4934 17.154 73.9114 17.28 73.4194 17.532C72.9274 17.772 72.5434 18.15 72.2674 18.666C72.0034 19.182 71.8714 19.86 71.8714 20.7C71.8714 21.528 72.0034 22.206 72.2674 22.734C72.5314 23.25 72.9094 23.634 73.4014 23.886C73.8934 24.126 74.4814 24.246 75.1654 24.246Z" fill="#F21818"/>
<defs>
<clipPath id="clip0_1038_13">
<rect width="150" height="32" fill="white" transform="translate(59 41.5)"/>
</clipPath>
</defs>
</svg>
