<svg xmlns="http://www.w3.org/2000/svg" fill="none" viewBox="0 0 239 120">
  <path d="M206.665 34.254v29.338h-10.476v-20.58h-10.087v20.58h-10.476v-29.34h31.039z" fill="#fff"/>
  <path fill-rule="evenodd" clip-rule="evenodd" d="M154.11 64.64c9.379 0 16.343-5.75 16.343-14.466 0-8.437-5.138-13.915-13.725-13.915-3.963 0-7.233 1.395-9.696 3.802.588-4.975 4.795-8.607 9.427-8.607 1.069 0 9.117-.017 9.117-.017l4.55-8.71s-10.103.23-14.8.23c-10.732.188-17.981 9.943-17.981 21.79 0 13.804 7.07 19.894 16.766 19.894zm.058-20.667c3.482 0 5.896 2.288 5.896 6.2 0 3.52-2.145 6.422-5.896 6.43-3.588 0-6.002-2.688-6.002-6.37 0-3.913 2.414-6.26 6.002-6.26z" fill="#fff"/>
  <path d="M128.818 53.77s-2.474 1.426-6.17 1.696c-4.247.126-8.032-2.557-8.032-7.324 0-4.65 3.34-7.315 7.926-7.315 2.812 0 6.532 1.949 6.532 1.949s2.722-4.995 4.132-7.493c-2.582-1.957-6.021-3.03-10.021-3.03-10.095 0-17.914 6.582-17.914 15.83 0 9.366 7.349 15.795 17.914 15.6 2.953-.11 7.027-1.146 9.51-2.741z" fill="#fff"/>
  <path fill="#5B57A2" d="m0 26.12 14.532 25.975v15.844L.017 93.863 0 26.12z"/>
  <path fill="#D90751" d="m55.797 42.643 13.617-8.346 27.868-.026-41.485 25.414V42.643z"/>
  <path fill="#FAB718" d="m55.72 25.967.077 34.39-14.566-8.95V0l14.49 25.967z"/>
  <path fill="#ED6F26" d="m97.282 34.271-27.869.026-13.693-8.33L41.231 0l56.05 34.271z"/>
  <path fill="#63B22F" d="M55.797 94.007V77.322l-14.566-8.78.008 51.458 14.558-25.993z"/>
  <path fill="#1487C9" d="M69.38 85.737 14.531 52.095 0 26.12l97.223 59.583-27.844.034z"/>
  <path fill="#017F36" d="m41.24 120 14.556-25.993 13.583-8.27 27.843-.034L41.24 120z"/>
  <path fill="#984995" d="m.017 93.863 41.333-25.32-13.896-8.526-12.922 7.922L.017 93.863z"/>
  <path d="M114.619 83.337a3.01 3.01 0 0 1-1.246.924 4.282 4.282 0 0 1-1.632.316 4.63 4.63 0 0 1-1.633-.274 3.623 3.623 0 0 1-1.262-.782 3.539 3.539 0 0 1-.824-1.224 4.173 4.173 0 0 1-.295-1.59c0-.54.093-1.04.286-1.513a3.58 3.58 0 0 1 .79-1.224 3.88 3.88 0 0 1 1.196-.823c.463-.2.968-.308 1.523-.308.598 0 1.153.075 1.658.224.505.15.934.4 1.287.75l-.614 1.04a2.886 2.886 0 0 0-1.027-.6 3.612 3.612 0 0 0-1.12-.174c-.335 0-.655.066-.966.19a2.591 2.591 0 0 0-.825.534 2.438 2.438 0 0 0-.564.832 2.64 2.64 0 0 0-.21 1.08c0 .409.075.775.218 1.09.144.326.337.6.58.833.245.234.53.408.859.525a2.9 2.9 0 0 0 1.044.183c.454 0 .867-.092 1.22-.267a3.05 3.05 0 0 0 .926-.69zm1.733 1.065v-7.405h1.33v5.517l4.325-5.517h1.33v7.406h-1.33v-5.517l-4.325 5.517h-1.33zm15.795-1.065a3.01 3.01 0 0 1-1.245.924 4.291 4.291 0 0 1-1.633.316 4.628 4.628 0 0 1-1.632-.274 3.627 3.627 0 0 1-1.263-.782 3.539 3.539 0 0 1-.824-1.224 4.173 4.173 0 0 1-.295-1.59c0-.54.093-1.04.286-1.513.186-.475.455-.882.79-1.224a3.88 3.88 0 0 1 1.196-.823 3.637 3.637 0 0 1 1.523-.308c.598 0 1.153.075 1.658.224.505.15.934.4 1.288.75l-.615 1.04a2.874 2.874 0 0 0-1.026-.6 3.616 3.616 0 0 0-1.12-.174 2.603 2.603 0 0 0-1.792.724 2.536 2.536 0 0 0-.564.832 2.64 2.64 0 0 0-.21 1.08c0 .409.076.775.219 1.09.143.326.336.6.58.833.244.234.53.408.859.525.328.116.673.183 1.043.183.455 0 .859-.092 1.22-.267a3.05 3.05 0 0 0 .926-.69zm.682-6.34h6.824v1.315h-2.743v6.09h-1.33v-6.09h-2.743v-1.315z" fill="#fff"/>
  <path fill-rule="evenodd" clip-rule="evenodd" d="M145.864 84.328c.505-.158.934-.4 1.304-.732l-.404-1.032c-.244.217-.572.4-.967.55-.396.15-.842.224-1.33.224-.732 0-1.338-.191-1.818-.582-.48-.392-.74-.94-.8-1.64h5.757a4 4 0 0 0 .084-.89 3.35 3.35 0 0 0-.278-1.381 3.277 3.277 0 0 0-.74-1.074 3.295 3.295 0 0 0-1.111-.69 3.692 3.692 0 0 0-1.355-.25c-.623 0-1.17.108-1.65.308a3.637 3.637 0 0 0-1.203.824 3.477 3.477 0 0 0-.748 1.223 4.272 4.272 0 0 0-.261 1.514c0 .583.1 1.115.286 1.59a3.5 3.5 0 0 0 .808 1.223c.345.34.765.599 1.262.782a4.772 4.772 0 0 0 1.658.274 5.04 5.04 0 0 0 1.506-.24zm-3.366-5.7c.412-.374.959-.557 1.649-.557.648 0 1.17.175 1.549.525.379.349.58.832.614 1.447h-4.544a2.26 2.26 0 0 1 .732-1.414z" fill="#fff"/>
  <path d="M149.499 76.997h1.212l2.878 3.67 2.726-3.67h1.178v7.406h-1.33v-5.4l-2.591 3.436h-.051l-2.692-3.437v5.4h-1.33z" fill="#fff"/>
</svg>
