<?xml version="1.0" encoding="UTF-8"?>
<svg xmlns="http://www.w3.org/2000/svg" viewBox="0 0 375 105" preserveAspectRatio="xMidYMid meet">
  <!-- Original Heleket wordmark -->
  <g>
    <path d="M5 55L30 67.5L21.25 56.25L31.25 28.75H46.25L56.25 57.5L46.25 67.5L35 78.75L73.75 60L52.5 0L46.25 16.25H32.5L25 0L5 55Z" fill="#F21818"/>
    <path d="M192.25 63.75H203.75L195 55.25H192.25C191.343 55.25 190.6 54.9426 189.954 54.2961C189.307 53.6496 189 52.9071 189 52V16.25H180.5V52C180.5 54.1646 181.011 56.1617 182.046 57.9631L182.056 57.9792L182.065 57.9951C183.132 59.7291 184.558 61.1309 186.327 62.192L186.347 62.2036C188.144 63.2371 190.121 63.75 192.25 63.75Z" fill="#F21818"/>
    <path d="M277.507 63.7501H290.04L266.783 44.7971L286.964 28.2501H274.854L254.718 45.0675V16.2501H246.218V63.7501H254.718V54.6921L260.435 50.0101L277.507 63.7501Z" fill="#F21818"/>
    <path d="M348.517 63.7501H340.017V36.7501H331.017V28.2501H340.017V16.2501H348.517V28.2501H375V36.7501H348.517V63.7501Z" fill="#F21818"/>
    <path fill-rule="evenodd" clip-rule="evenodd" d="M175.888 45.913C174.861 47.6952 173.45 49.1255 171.673 50.1918L171.665 50.1967C169.897 51.2394 167.914 51.75 165.75 51.75H145.003C145.608 52.523 146.336 53.2001 147.189 53.7838C148.656 54.76 150.291 55.25 152.13 55.25H175V63.75H152.13C149.692 63.75 147.387 63.3001 145.226 62.3925L145.198 62.3807C143.099 61.4385 141.233 60.1512 139.606 58.5239L139.594 58.5121C138.007 56.8816 136.761 55.0126 135.861 52.9124L135.857 52.904C134.95 50.743 134.5 48.4376 134.5 46C134.5 43.5643 134.949 41.2769 135.859 39.152C136.758 37.0127 138.004 35.1216 139.594 33.488L139.606 33.476C141.236 31.8459 143.107 30.5764 145.212 29.6734C147.376 28.7222 149.686 28.25 152.13 28.25H165.75C167.918 28.25 169.902 28.7824 171.669 29.8656C173.448 30.8919 174.858 32.3023 175.884 34.0809C176.968 35.8478 177.5 37.8321 177.5 40C177.5 42.1357 176.964 44.1156 175.888 45.913ZM147.871 37.7962C149.158 37.1018 150.57 36.75 152.13 36.75H165.75C166.657 36.75 167.4 37.0573 168.046 37.7039C168.693 38.3504 169 39.0929 169 40C169 40.9071 168.693 41.6496 168.046 42.2961C167.4 42.9426 166.657 43.25 165.75 43.25H143.422C143.704 42.3218 144.127 41.4605 144.691 40.6608C145.543 39.4547 146.6 38.5036 147.871 37.7962Z" fill="#F21818"/>
    <path d="M123.34 63.75V45.75H91.25V37.25H123.34V19.25H131.84V63.75H123.34Z" fill="#F21818"/>
    <path d="M85 63.75H93.5V19.25H85V63.75Z" fill="#F21818"/>
    <path fill-rule="evenodd" clip-rule="evenodd" d="M240.138 45.913C239.111 47.6952 237.7 49.1255 235.923 50.1918L235.915 50.1967C234.147 51.2394 232.164 51.75 230 51.75H209.253C209.858 52.523 210.586 53.2001 211.439 53.7838C212.906 54.76 214.541 55.25 216.38 55.25H239.25V63.75H216.38C213.942 63.75 211.637 63.3001 209.476 62.3925L209.448 62.3807C207.349 61.4385 205.483 60.1512 203.856 58.5239L203.844 58.5121C202.257 56.8816 201.011 55.0126 200.111 52.9124L200.107 52.904C199.2 50.743 198.75 48.4376 198.75 46C198.75 43.5643 199.199 41.2769 200.109 39.152C201.008 37.0127 202.254 35.1216 203.844 33.488L203.856 33.476C205.486 31.8459 207.357 30.5764 209.462 29.6734C211.626 28.7222 213.936 28.25 216.38 28.25H230C232.168 28.25 234.152 28.7824 235.919 29.8656C237.698 30.8919 239.108 32.3023 240.134 34.0809C241.218 35.8478 241.75 37.8321 241.75 40C241.75 42.1357 241.214 44.1156 240.138 45.913ZM212.121 37.7962C213.408 37.1018 214.82 36.75 216.38 36.75H230C230.907 36.75 231.65 37.0573 232.296 37.7039C232.943 38.3504 233.25 39.0929 233.25 40C233.25 40.9071 232.943 41.6496 232.296 42.2961C231.65 42.9426 230.907 43.25 230 43.25H207.672C207.954 42.3218 208.377 41.4605 208.941 40.6608C209.793 39.4547 210.85 38.5036 212.121 37.7962Z" fill="#F21818"/>
    <path fill-rule="evenodd" clip-rule="evenodd" d="M326.388 45.913C325.361 47.6952 323.95 49.1255 322.173 50.1918L322.165 50.1967C320.397 51.2394 318.414 51.75 316.25 51.75H295.503C296.108 52.523 296.836 53.2001 297.689 53.7838C299.156 54.76 300.791 55.25 302.63 55.25H325.5V63.75H302.63C300.192 63.75 297.887 63.3001 295.726 62.3925L295.698 62.3807C293.599 61.4385 291.733 60.1512 290.106 58.5239L290.094 58.5121C288.507 56.8816 287.261 55.0126 286.361 52.9124L286.357 52.904C285.45 50.743 285 48.4376 285 46C285 43.5643 285.449 41.2769 286.359 39.152C287.258 37.0127 288.504 35.1216 290.094 33.488L290.106 33.476C291.736 31.8459 293.607 30.5764 295.712 29.6734C297.876 28.7222 300.186 28.25 302.63 28.25H316.25C318.418 28.25 320.402 28.7824 322.169 29.8656C323.948 30.8919 325.358 32.3023 326.384 34.0809C327.468 35.8478 328 37.8321 328 40C328 42.1357 327.464 44.1156 326.388 45.913ZM298.371 37.7962C299.658 37.1018 301.07 36.75 302.63 36.75H316.25C317.157 36.75 317.9 37.0573 318.546 37.7039C319.193 38.3504 319.5 39.0929 319.5 40C319.5 40.9071 319.193 41.6496 318.546 42.2961C317.9 42.9426 317.157 43.25 316.25 43.25H293.922C294.204 42.3218 294.627 41.4605 295.191 40.6608C296.043 39.4547 297.1 38.5036 298.371 37.7962Z" fill="#F21818"/>
  </g>

  <!-- CRYPTO subtitle — bigger, brand red, tight under wordmark -->
  <text
    x="187.5"
    y="98"
    text-anchor="middle"
    font-family="'Helvetica Neue', Helvetica, Arial, sans-serif"
    font-size="22"
    font-weight="800"
    fill="#F21818"
    letter-spacing="10"
  >CRYPTO</text>
</svg>
